# xmcd CD database file
#
# Track frame offsets:
#	182
#	16755
#	28872
#	38787
#	48450
#	57995
#	70565
#	78835
#	90582
#	101320
#	112312
#	123262
#	138462
#	148962
#	161170
#	172090
#	182172
#	195392
#	213757
#	227942
#	238912
#	249860
#	260217
#
# Disc length: 3635 seconds
#
# Revision: 0
# Processed by: cddbd v1.4PL0 Copyright (c) Steve Scherf et al.
# Submitted via: CDex 1.40Release
#
DISCID=480e3117
DTITLE=Jimmy C. Newman - Louisiana Saturday Night
DYEAR=1900
DGENRE=Country
TTITLE0=Sugar Bee
TTITLE1=Jambalaya(On The Bayou)
TTITLE2=Alligator Man
TTITLE3=Louisiana Saturday Night
TTITLE4=Hippie Ti Yo
TTITLE5=Jole Blon
TTITLE6=Thibodeaux And His Cajun Band
TTITLE7=Boo-Dan
TTITLE8=Corrine Corrina
TTITLE9=Alons A Lafayette
TTITLE10=Big Bayou
TTITLE11=Sweet Suzannah
TTITLE12=Big Texas
TTITLE13=A Cajun Man Can
TTITLE14=Big Mamou
TTITLE15=Colinda
TTITLE16=Daydreamin
TTITLE17=Lache Pas La Patate
TTITLE18=Basile Waltz
TTITLE19=Grand Chenier
TTITLE20=Diggy Liggy Lo
TTITLE21=The Happy Cajun
TTITLE22=The More Happy Cajun
EXTD=ID3G: 2
EXTT0=
EXTT1=
EXTT2=
EXTT3=
EXTT4=
EXTT5=
EXTT6=
EXTT7=
EXTT8=
EXTT9=
EXTT10=
EXTT11=
EXTT12=
EXTT13=
EXTT14=
EXTT15=
EXTT16=
EXTT17=
EXTT18=
EXTT19=
EXTT20=
EXTT21=
EXTT22=
PLAYORDER=
